<svg xmlns="http://www.w3.org/2000/svg" viewBox="0 0 24 24" width="48" height="48" fill="currentColor">
  <path d="M12 2C6.48 2 2 5.58 2 10c0 2.08.88 3.97 2.34 5.39-.25.97-.72 2.54-1.5 3.85 0 0-.13.24.03.38.16.14.36.06.36.06 1.43-.44 3.37-1.03 4.44-1.43C9.18 19.32 10.54 20 12 20c5.52 0 10-3.58 10-8s-4.48-8-10-8zm0 14c-1.21 0-2.34-.27-3.35-.75l-.4-.2-.42.14c-.85.28-1.9.6-2.87.88.34-.65.62-1.4.77-2.08l.15-.7-.5-.52C4.98 12.08 4 11.06 4 10c0-3.16 3.58-6 8-6s8 2.84 8 6-3.58 6-8 6zm-4-6h8v2H8v-2zm6-4v2H6V6h8z" />
</svg>
